<svg xmlns="http://www.w3.org/2000/svg" viewBox="0 0 1600 900" role="img" aria-labelledby="title desc">
<title id="title">Nurol Supply Chain AI - Executive Summary</title>
<desc id="desc">English dashboard screenshot mockup showing forecast metrics and actual versus predicted sales.</desc>
<style>.bg{fill:#f5f7fb}.bar{fill:#fff}.ink{fill:#1f2937}.muted{fill:#687386}.card{fill:#fff;stroke:#dde3ed}.grid{stroke:#e5e7eb;stroke-width:1;stroke-dasharray:4 4}.purple{fill:#6c63ff}.teal{fill:#00c9a7}.red{fill:#ff646b}.amber{fill:#ffb340}.font{font-family:'Libre Franklin',Arial,sans-serif}</style>
<rect class="bg" width="1600" height="900"/><rect class="bar" width="1600" height="58"/><path class="ink" d="M22 22h18v3H22zm0 8h18v3H22zm0 8h18v3H22z"/><text x="70" y="36" class="ink font" font-size="22" font-weight="700">AI-Assisted Demand Forecasting and Stock Optimization</text><circle cx="1514" cy="18" r="11" fill="#ef2228"/><text x="1508" y="23" class="font" font-size="12" font-weight="700" fill="#fff">14</text><circle cx="1553" cy="29" r="8" fill="#687386"/>
<text x="32" y="105" class="ink font" font-size="31" font-weight="800">Executive Summary</text><text x="32" y="132" class="muted font" font-size="17">AI-assisted demand forecasting and inventory optimization metrics</text>
<g class="font">
<g transform="translate(32 165)"><rect width="350" height="160" rx="14" class="card"/><text x="28" y="46" class="muted" font-size="16">Forecast Accuracy (MAPE)</text><text x="28" y="92" class="purple" font-size="40" font-weight="800">3.3</text><text x="116" y="92" class="muted" font-size="22">%</text><circle cx="300" cy="62" r="28" fill="#f0efff"/><circle cx="300" cy="62" r="10" fill="none" stroke="#6c63ff" stroke-width="5"/><text x="28" y="132" fill="#10b981" font-size="15" font-weight="800">✓ Target ≤ 15% reached</text></g>
<g transform="translate(410 165)"><rect width="350" height="160" rx="14" class="card"/><text x="28" y="46" class="muted" font-size="16">Weighted Forecast Error (WAPE)</text><text x="28" y="92" class="teal" font-size="40" font-weight="800">3.3</text><text x="116" y="92" class="muted" font-size="22">%</text><circle cx="300" cy="62" r="28" fill="#e9fff9"/><path d="M285 72l13-13 9 8 18-22" fill="none" stroke="#00c9a7" stroke-width="5"/><text x="28" y="132" fill="#10b981" font-size="15" font-weight="800">✓ Target ≤ 15% reached</text></g>
<g transform="translate(788 165)"><rect width="350" height="160" rx="14" class="card"/><text x="28" y="46" class="muted" font-size="16">Stockout Rate</text><text x="28" y="92" class="red" font-size="40" font-weight="800">18.5</text><text x="132" y="92" class="muted" font-size="22">%</text><circle cx="300" cy="62" r="28" fill="#fff0f2"/><path d="M284 48l31 31M312 48l-18 31" stroke="#ff646b" stroke-width="5" stroke-linecap="round"/><text x="28" y="132" fill="#10b981" font-size="15" font-weight="800">✓ Target ≤ 20% reached</text></g>
<g transform="translate(1166 165)"><rect width="350" height="160" rx="14" class="card"/><text x="28" y="46" class="muted" font-size="16">Excess Inventory Rate</text><text x="28" y="92" class="amber" font-size="40" font-weight="800">12.3</text><text x="132" y="92" class="muted" font-size="22">%</text><circle cx="300" cy="62" r="28" fill="#fff7e9"/><rect x="286" y="48" width="28" height="26" rx="3" fill="#ffb340"/><text x="28" y="132" fill="#10b981" font-size="15" font-weight="800">✓ Target ≤ 15% reached</text></g>
</g>
<rect x="32" y="360" width="1484" height="470" rx="14" class="card"/><text x="60" y="405" class="ink font" font-size="25" font-weight="800">Last 30 Days - Actual Sales vs. Forecast</text><text x="60" y="438" class="muted font" font-size="16">Daily total sales quantity across all products</text>
<g transform="translate(90 480)">
<line x1="0" y1="330" x2="1390" y2="330" stroke="#cfd5dd"/><line x1="0" y1="220" x2="1390" y2="220" class="grid"/><line x1="0" y1="110" x2="1390" y2="110" class="grid"/><line x1="0" y1="0" x2="1390" y2="0" class="grid"/>
<g class="muted font" font-size="13"><text x="-35" y="335">0</text><text x="-45" y="225">300</text><text x="-45" y="115">600</text><text x="-45" y="5">900</text></g>
<path d="M0 260 C45 250 55 235 70 120 C150 100 220 150 295 145 C350 142 360 270 410 278 C440 282 455 285 470 150 C520 110 560 175 610 165 C690 145 720 155 760 120 C790 100 805 260 850 265 C900 270 900 152 950 150 C1000 147 1015 125 1050 110 C1120 85 1150 95 1190 180 C1230 245 1260 260 1290 265 C1310 150 1350 118 1390 122" fill="none" stroke="#6c63ff" stroke-width="4"/>
<path d="M0 245 C45 240 58 228 75 105 C150 92 225 148 302 142 C360 136 368 275 410 281 C442 285 458 288 475 138 C525 105 560 168 612 158 C680 142 718 140 760 105 C805 72 820 238 850 250 C900 258 905 135 950 138 C1015 142 1035 116 1060 96 C1118 76 1160 105 1190 190 C1225 238 1258 252 1295 258 C1318 140 1360 112 1390 118" fill="none" stroke="#00c9a7" stroke-width="4" stroke-dasharray="8 8"/>
<path d="M0 260 C45 250 55 235 70 120 C150 100 220 150 295 145 C350 142 360 270 410 278 C440 282 455 285 470 150 C520 110 560 175 610 165 C690 145 720 155 760 120 C790 100 805 260 850 265 C900 270 900 152 950 150 C1000 147 1015 125 1050 110 C1120 85 1150 95 1190 180 C1230 245 1260 260 1290 265 C1310 150 1350 118 1390 122 L1390 330 L0 330 Z" fill="#9bdaf0" opacity=".45"/>
</g>
<g class="font" font-size="16"><circle cx="690" cy="852" r="4" fill="#6c63ff"/><text x="705" y="858" fill="#6c63ff">Actual</text><circle cx="790" cy="852" r="4" fill="#00c9a7"/><text x="805" y="858" fill="#00c9a7">Forecast</text></g>
</svg>